<?xml version="1.0" standalone="no"?>
<!DOCTYPE svg PUBLIC "-//W3C//DTD SVG 20010904//EN"
 "http://www.w3.org/TR/2001/REC-SVG-20010904/DTD/svg10.dtd">
<svg version="1.0" xmlns="http://www.w3.org/2000/svg"
 width="1198.000000pt" height="1198.000000pt" viewBox="0 0 1198.000000 1198.000000"
 preserveAspectRatio="xMidYMid meet">
<metadata>
Created by potrace 1.14, written by Peter Selinger 2001-2017
</metadata>
<g transform="translate(0.000000,1198.000000) scale(0.100000,-0.100000)"
fill="#000000" stroke="none">
<path d="M11135 9568 c-79 -7 -155 -17 -234 -33 -286 -56 -545 -266 -675 -547
-43 -93 -76 -204 -102 -347 -27 -139 -139 -335 -267 -464 -122 -122 -221 -161
-817 -313 -512 -131 -599 -159 -767 -245 -230 -117 -437 -272 -654 -488 -135
-135 -258 -282 -333 -396 -22 -33 -43 -62 -46 -65 -4 -3 -26 -37 -49 -77 -22
-40 -45 -74 -49 -77 -4 -2 -30 23 -59 57 -28 34 -101 118 -163 187 -129 142
-162 201 -189 337 -17 84 -21 259 -7 323 32 146 39 164 163 388 54 98 104 203
115 240 26 90 35 285 18 394 -45 293 -233 563 -493 706 -64 36 -186 78 -258
88 -105 16 -288 9 -372 -15 -367 -101 -593 -462 -538 -856 27 -190 52 -259
214 -585 78 -157 142 -287 142 -290 1 -3 5 -12 8 -20 4 -8 15 -49 26 -90 23
-91 22 -226 -4 -344 -15 -74 -24 -89 -107 -205 -50 -69 -92 -127 -92 -128 -1
-1 -20 14 -41 34 -22 19 -71 63 -110 96 -38 33 -72 63 -75 67 -3 3 -54 46
-115 95 -60 49 -112 92 -115 95 -14 16 -248 186 -330 240 -89 59 -239 140
-321 173 -19 8 -76 24 -125 36 -167 39 -249 73 -379 158 -176 114 -295 279
-329 453 -3 14 -7 36 -10 50 -6 24 -20 102 -31 165 -3 17 -8 37 -10 45 -2 8
-7 51 -10 95 -3 44 -8 91 -10 105 -3 14 -7 41 -10 60 -8 47 -60 154 -105 215
-130 176 -425 376 -625 424 -359 85 -711 -130 -805 -494 -22 -84 -30 -241 -16
-325 49 -291 237 -496 726 -790 165 -99 216 -144 287 -250 81 -120 125 -279
125 -450 -1 -58 -3 -114 -6 -125 -2 -11 -9 -39 -14 -63 -6 -24 -12 -45 -14
-47 -3 -4 -103 8 -165 20 -98 17 -478 24 -623 11 -203 -18 -388 -55 -595 -118
-38 -12 -72 -22 -75 -23 -3 -1 -12 -4 -20 -7 -8 -3 -62 -23 -120 -44 -125 -45
-297 -124 -400 -184 -68 -40 -229 -149 -256 -175 -7 -5 -31 -26 -55 -45 -68
-53 -247 -237 -315 -322 -81 -100 -165 -237 -225 -366 -27 -57 -49 -107 -49
-111 0 -4 -7 -21 -14 -37 -30 -59 -116 -385 -131 -494 -3 -25 -8 -56 -10 -70
-26 -166 -21 -437 10 -600 3 -13 7 -42 11 -64 10 -72 72 -270 119 -381 159
-379 428 -705 766 -927 367 -240 785 -385 1229 -425 150 -14 581 -5 610 12 3
1 28 6 55 9 136 19 402 92 511 142 29 13 55 24 59 24 6 0 175 84 225 112 216
119 488 346 631 524 37 47 149 203 149 208 0 2 18 34 40 70 75 124 178 359
215 491 24 86 36 115 49 115 6 -1 38 -7 71 -16 33 -8 71 -17 85 -20 14 -2 39
-9 55 -14 17 -5 44 -12 60 -15 85 -15 85 -14 121 -113 72 -199 171 -401 282
-572 34 -53 131 -190 142 -200 3 -3 25 -30 50 -60 72 -89 188 -211 298 -312
l51 -48 604 0 604 0 94 93 c197 193 351 406 469 649 66 136 133 312 143 374 3
16 10 47 15 69 19 67 41 224 48 330 3 55 8 102 11 105 3 3 75 5 161 6 188 1
257 7 413 38 101 20 110 23 142 35 15 6 27 9 27 6 0 -2 37 9 83 25 363 124
827 422 1127 723 283 284 503 669 601 1050 25 98 28 111 54 267 27 154 27 550
0 705 -3 17 -7 44 -10 61 -6 35 33 123 95 215 52 76 152 176 227 227 81 55
343 186 413 207 14 4 39 13 55 20 17 7 53 21 80 30 128 45 338 170 410 242
127 129 186 293 188 523 1 235 -31 377 -119 521 -83 137 -251 259 -393 285
-14 3 -28 7 -31 9 -8 5 -112 16 -166 18 -22 1 -79 -1 -129 -5z m-6374 -3035
c13 -16 12 -17 -3 -4 -10 7 -18 15 -18 17 0 8 8 3 21 -13z"/>
</g>
</svg>
